<svg version="1.1" viewBox="0.0 0.0 377.9527559055118 377.9527559055118" fill="none" stroke="none" stroke-linecap="square" stroke-miterlimit="10" xmlns:xlink="http://www.w3.org/1999/xlink" xmlns="http://www.w3.org/2000/svg"><clipPath id="p.0"><path d="m0 0l377.95276 0l0 377.95276l-377.95276 0l0 -377.95276z" clip-rule="nonzero"/></clipPath><g clip-path="url(#p.0)"><path fill="#000000" fill-opacity="0.0" d="m0 0l377.95276 0l0 377.95276l-377.95276 0z" fill-rule="evenodd"/><path fill="#000000" fill-opacity="0.0" d="m33.9378 188.96828l0 0c0 -82.39769 69.41171 -149.19421 155.0354 -149.19421l0 0c41.11795 0 80.55182 15.718628 109.62659 43.697968c29.074799 27.97934 45.408813 65.92747 45.408813 105.49624l0 0c0 82.39769 -69.41171 149.1942 -155.0354 149.1942l0 0c-85.62369 0 -155.0354 -66.79651 -155.0354 -149.1942z" fill-rule="evenodd"/><path stroke="#9ec8b9" stroke-width="8.0" stroke-linejoin="round" stroke-linecap="butt" d="m33.9378 188.96828l0 0c0 -82.39769 69.41171 -149.19421 155.0354 -149.19421l0 0c41.11795 0 80.55182 15.718628 109.62659 43.697968c29.074799 27.97934 45.408813 65.92747 45.408813 105.49624l0 0c0 82.39769 -69.41171 149.1942 -155.0354 149.1942l0 0c-85.62369 0 -155.0354 -66.79651 -155.0354 -149.1942z" fill-rule="evenodd"/><path fill="#000000" fill-opacity="0.0" d="m188.9732 39.77407l0 298.40356" fill-rule="evenodd"/><path stroke="#9ec8b9" stroke-width="12.0" stroke-linejoin="round" stroke-linecap="butt" d="m188.9732 39.77407l0 298.40356" fill-rule="evenodd"/><path fill="#9ec8b9" d="m219.97374 189.34186l0 0c0 -51.560852 27.767197 -93.35918 62.01979 -93.35918l0 0c16.44867 0 32.223633 9.836029 43.854614 27.344276c11.630951 17.508232 18.165161 41.25451 18.165161 66.0149l0 0c0 51.560852 -27.767212 93.35919 -62.019775 93.35919l0 0c-34.252594 0 -62.01979 -41.79834 -62.01979 -93.35919z" fill-rule="evenodd"/><path stroke="#9ec8b9" stroke-width="1.0" stroke-linejoin="round" stroke-linecap="butt" d="m219.97374 189.34186l0 0c0 -51.560852 27.767197 -93.35918 62.01979 -93.35918l0 0c16.44867 0 32.223633 9.836029 43.854614 27.344276c11.630951 17.508232 18.165161 41.25451 18.165161 66.0149l0 0c0 51.560852 -27.767212 93.35919 -62.019775 93.35919l0 0c-34.252594 0 -62.01979 -41.79834 -62.01979 -93.35919z" fill-rule="evenodd"/><path fill="#9ec8b9" d="m188.9732 222.93604l0 0c0 -51.560852 27.767212 -93.35919 62.01979 -93.35919l0 0c16.448654 0 32.223648 9.836029 43.8546 27.344284c11.630981 17.50824 18.165192 41.254517 18.165192 66.01491l0 0c0 51.560852 -27.767212 93.35919 -62.01979 93.35919l0 0c-34.25258 0 -62.01979 -41.79834 -62.01979 -93.35919z" fill-rule="evenodd"/><path stroke="#9ec8b9" stroke-width="1.0" stroke-linejoin="round" stroke-linecap="butt" d="m188.9732 222.93604l0 0c0 -51.560852 27.767212 -93.35919 62.01979 -93.35919l0 0c16.448654 0 32.223648 9.836029 43.8546 27.344284c11.630981 17.50824 18.165192 41.254517 18.165192 66.01491l0 0c0 51.560852 -27.767212 93.35919 -62.01979 93.35919l0 0c-34.25258 0 -62.01979 -41.79834 -62.01979 -93.35919z" fill-rule="evenodd"/><path fill="#9ec8b9" d="m188.9732 158.15906l0 0c0 -51.560844 27.767212 -93.35918 62.01979 -93.35918l0 0c16.448654 0 32.223648 9.836029 43.8546 27.344269c11.630981 17.508247 18.165192 41.254517 18.165192 66.01491l0 0c0 51.560852 -27.767212 93.35919 -62.01979 93.35919l0 0c-34.25258 0 -62.01979 -41.79834 -62.01979 -93.35919z" fill-rule="evenodd"/><path stroke="#9ec8b9" stroke-width="1.0" stroke-linejoin="round" stroke-linecap="butt" d="m188.9732 158.15906l0 0c0 -51.560844 27.767212 -93.35918 62.01979 -93.35918l0 0c16.448654 0 32.223648 9.836029 43.8546 27.344269c11.630981 17.508247 18.165192 41.254517 18.165192 66.01491l0 0c0 51.560852 -27.767212 93.35919 -62.01979 93.35919l0 0c-34.25258 0 -62.01979 -41.79834 -62.01979 -93.35919z" fill-rule="evenodd"/><path fill="#9ec8b9" d="m205.89026 205.79932l0 0c0 -51.560852 27.767197 -93.35918 62.019775 -93.35918l0 0c16.44867 0 32.223633 9.836029 43.854614 27.344269c11.630951 17.50824 18.165161 41.254517 18.165161 66.01491l0 0c0 51.560852 -27.767181 93.35919 -62.019775 93.35919l0 0c-34.25258 0 -62.019775 -41.79834 -62.019775 -93.35919z" fill-rule="evenodd"/><path stroke="#9ec8b9" stroke-width="1.0" stroke-linejoin="round" stroke-linecap="butt" d="m205.89026 205.79932l0 0c0 -51.560852 27.767197 -93.35918 62.019775 -93.35918l0 0c16.44867 0 32.223633 9.836029 43.854614 27.344269c11.630951 17.50824 18.165161 41.254517 18.165161 66.01491l0 0c0 51.560852 -27.767181 93.35919 -62.019775 93.35919l0 0c-34.25258 0 -62.019775 -41.79834 -62.019775 -93.35919z" fill-rule="evenodd"/><path fill="#9ec8b9" d="m205.89026 167.12042l0 0c0 -51.560852 27.767197 -93.359184 62.019775 -93.359184l0 0c16.44867 0 32.223633 9.836029 43.854614 27.344269c11.630951 17.508247 18.165161 41.254524 18.165161 66.014915l0 0c0 51.560852 -27.767181 93.35919 -62.019775 93.35919l0 0c-34.25258 0 -62.019775 -41.79834 -62.019775 -93.35919z" fill-rule="evenodd"/><path stroke="#9ec8b9" stroke-width="1.0" stroke-linejoin="round" stroke-linecap="butt" d="m205.89026 167.12042l0 0c0 -51.560852 27.767197 -93.359184 62.019775 -93.359184l0 0c16.44867 0 32.223633 9.836029 43.854614 27.344269c11.630951 17.508247 18.165161 41.254524 18.165161 66.014915l0 0c0 51.560852 -27.767181 93.35919 -62.019775 93.35919l0 0c-34.25258 0 -62.019775 -41.79834 -62.019775 -93.35919z" fill-rule="evenodd"/><path fill="#9ec8b9" d="m183.9741 270.54248l0 0c0 -34.70781 16.80571 -62.84404 37.53662 -62.84404l0 0c9.955338 0 19.502914 6.621048 26.542404 18.406586c7.0394745 11.785538 10.994232 27.770172 10.994232 44.437454l0 0c0 34.707794 -16.805725 62.844025 -37.536636 62.844025l0 0c-20.730911 0 -37.53662 -28.13623 -37.53662 -62.844025z" fill-rule="evenodd"/><path stroke="#9ec8b9" stroke-width="1.0" stroke-linejoin="round" stroke-linecap="butt" d="m183.9741 270.54248l0 0c0 -34.70781 16.80571 -62.84404 37.53662 -62.84404l0 0c9.955338 0 19.502914 6.621048 26.542404 18.406586c7.0394745 11.785538 10.994232 27.770172 10.994232 44.437454l0 0c0 34.707794 -16.805725 62.844025 -37.536636 62.844025l0 0c-20.730911 0 -37.53662 -28.13623 -37.53662 -62.844025z" fill-rule="evenodd"/><path fill="#9ec8b9" d="m188.97522 308.4712l0 0c0 -16.38498 4.809799 -29.667664 10.742996 -29.667664l0 0c2.8492126 0 5.5817413 3.125702 7.5964355 8.689453c2.0147095 5.5637817 3.1465454 13.109863 3.1465454 20.97821l0 0c0 16.38501 -4.809799 29.667694 -10.742981 29.667694l0 0c-5.933197 0 -10.742996 -13.282684 -10.742996 -29.667694z" fill-rule="evenodd"/><path stroke="#9ec8b9" stroke-width="1.0" stroke-linejoin="round" stroke-linecap="butt" d="m188.97522 308.4712l0 0c0 -16.38498 4.809799 -29.667664 10.742996 -29.667664l0 0c2.8492126 0 5.5817413 3.125702 7.5964355 8.689453c2.0147095 5.5637817 3.1465454 13.109863 3.1465454 20.97821l0 0c0 16.38501 -4.809799 29.667694 -10.742981 29.667694l0 0c-5.933197 0 -10.742996 -13.282684 -10.742996 -29.667694z" fill-rule="evenodd"/><path fill="#9ec8b9" d="m188.9732 82.77596l0 0c0 -16.383072 16.808792 -29.664173 37.543472 -29.664173l0 0c20.73468 0 37.543472 13.281101 37.543472 29.664173l0 0c0 16.383072 -16.808792 29.664177 -37.543472 29.664177l0 0c-20.73468 0 -37.543472 -13.281105 -37.543472 -29.664177z" fill-rule="evenodd"/><path stroke="#9ec8b9" stroke-width="1.0" stroke-linejoin="round" stroke-linecap="butt" d="m188.9732 82.77596l0 0c0 -16.383072 16.808792 -29.664173 37.543472 -29.664173l0 0c20.73468 0 37.543472 13.281101 37.543472 29.664173l0 0c0 16.383072 -16.808792 29.664177 -37.543472 29.664177l0 0c-20.73468 0 -37.543472 -13.281105 -37.543472 -29.664177z" fill-rule="evenodd"/><path fill="#9ec8b9" d="m185.61108 58.410515c0 -6.1786194 14.568222 -11.187378 32.539032 -11.187378l0 0c17.970825 0 32.539047 5.0087585 32.539047 11.187378l0 0c0 6.1786194 -14.568222 11.187378 -32.539047 11.187378l0 0c-17.97081 0 -32.539032 -5.0087585 -32.539032 -11.187378z" fill-rule="evenodd"/><path stroke="#9ec8b9" stroke-width="1.0" stroke-linejoin="round" stroke-linecap="butt" d="m185.61108 58.410515c0 -6.1786194 14.568222 -11.187378 32.539032 -11.187378l0 0c17.970825 0 32.539047 5.0087585 32.539047 11.187378l0 0c0 6.1786194 -14.568222 11.187378 -32.539047 11.187378l0 0c-17.97081 0 -32.539032 -5.0087585 -32.539032 -11.187378z" fill-rule="evenodd"/><path fill="#9ec8b9" d="m230.76 73.31048l0 0c0 -6.1737976 9.058624 -11.178646 20.233002 -11.178646l0 0c11.174393 0 20.233017 5.0048485 20.233017 11.178646l0 0c0 6.1737976 -9.058624 11.17865 -20.233017 11.17865l0 0c-11.174377 0 -20.233002 -5.0048523 -20.233002 -11.17865z" fill-rule="evenodd"/><path stroke="#9ec8b9" stroke-width="1.0" stroke-linejoin="round" stroke-linecap="butt" d="m230.76 73.31048l0 0c0 -6.1737976 9.058624 -11.178646 20.233002 -11.178646l0 0c11.174393 0 20.233017 5.0048485 20.233017 11.178646l0 0c0 6.1737976 -9.058624 11.17865 -20.233017 11.17865l0 0c-11.174377 0 -20.233002 -5.0048523 -20.233002 -11.17865z" fill-rule="evenodd"/><path fill="#9ec8b9" d="m188.97386 117.07666c0 -5.296715 12.578323 -9.590546 28.094482 -9.590546l0 0c15.516159 0 28.094498 4.293831 28.094498 9.590546l0 0c0 5.296715 -12.578339 9.590553 -28.094498 9.590553l0 0c-15.516159 0 -28.094482 -4.2938385 -28.094482 -9.590553z" fill-rule="evenodd"/><path stroke="#9ec8b9" stroke-width="1.0" stroke-linejoin="round" stroke-linecap="butt" d="m188.97386 117.07666c0 -5.296715 12.578323 -9.590546 28.094482 -9.590546l0 0c15.516159 0 28.094498 4.293831 28.094498 9.590546l0 0c0 5.296715 -12.578339 9.590553 -28.094498 9.590553l0 0c-15.516159 0 -28.094482 -4.2938385 -28.094482 -9.590553z" fill-rule="evenodd"/><path fill="#9ec8b9" d="m203.58015 293.1029c0 -5.2967224 12.578339 -9.590546 28.094498 -9.590546l0 0c15.516159 0 28.094482 4.2938232 28.094482 9.590546l0 0c0 5.2967224 -12.578323 9.590546 -28.094482 9.590546l0 0c-15.516159 0 -28.094498 -4.2938232 -28.094498 -9.590546z" fill-rule="evenodd"/><path stroke="#9ec8b9" stroke-width="1.0" stroke-linejoin="round" stroke-linecap="butt" d="m203.58015 293.1029c0 -5.2967224 12.578339 -9.590546 28.094498 -9.590546l0 0c15.516159 0 28.094482 4.2938232 28.094482 9.590546l0 0c0 5.2967224 -12.578323 9.590546 -28.094482 9.590546l0 0c-15.516159 0 -28.094498 -4.2938232 -28.094498 -9.590546z" fill-rule="evenodd"/><path fill="#9ec8b9" d="m229.03423 272.1895c0 -5.296692 12.578339 -9.590546 28.094498 -9.590546l0 0c15.516144 0 28.094482 4.2938538 28.094482 9.590546l0 0c0 5.2967224 -12.578339 9.590576 -28.094482 9.590576l0 0c-15.516159 0 -28.094498 -4.2938538 -28.094498 -9.590576z" fill-rule="evenodd"/><path stroke="#9ec8b9" stroke-width="1.0" stroke-linejoin="round" stroke-linecap="butt" d="m229.03423 272.1895c0 -5.296692 12.578339 -9.590546 28.094498 -9.590546l0 0c15.516144 0 28.094482 4.2938538 28.094482 9.590546l0 0c0 5.2967224 -12.578339 9.590576 -28.094482 9.590576l0 0c-15.516159 0 -28.094498 -4.2938538 -28.094498 -9.590576z" fill-rule="evenodd"/><path fill="#9ec8b9" d="m188.97643 306.063l0 0c0 -5.2967224 6.641693 -9.590546 14.834656 -9.590546l0 0c8.192947 0 14.8346405 4.2938232 14.8346405 9.590546l0 0c0 5.2967224 -6.641693 9.590546 -14.8346405 9.590546l0 0c-8.192963 0 -14.834656 -4.2938232 -14.834656 -9.590546z" fill-rule="evenodd"/><path stroke="#9ec8b9" stroke-width="1.0" stroke-linejoin="round" stroke-linecap="butt" d="m188.97643 306.063l0 0c0 -5.2967224 6.641693 -9.590546 14.834656 -9.590546l0 0c8.192947 0 14.8346405 4.2938232 14.8346405 9.590546l0 0c0 5.2967224 -6.641693 9.590546 -14.8346405 9.590546l0 0c-8.192963 0 -14.834656 -4.2938232 -14.834656 -9.590546z" fill-rule="evenodd"/><path fill="#9ec8b9" d="m214.42793 88.15803c0 -5.296715 12.578323 -9.590553 28.094482 -9.590553l0 0c15.516159 0 28.094498 4.2938385 28.094498 9.590553l0 0c0 5.296715 -12.578339 9.590553 -28.094498 9.590553l0 0c-15.516159 0 -28.094482 -4.2938385 -28.094482 -9.590553z" fill-rule="evenodd"/><path stroke="#9ec8b9" stroke-width="1.0" stroke-linejoin="round" stroke-linecap="butt" d="m214.42793 88.15803c0 -5.296715 12.578323 -9.590553 28.094482 -9.590553l0 0c15.516159 0 28.094498 4.2938385 28.094498 9.590553l0 0c0 5.296715 -12.578339 9.590553 -28.094498 9.590553l0 0c-15.516159 0 -28.094482 -4.2938385 -28.094482 -9.590553z" fill-rule="evenodd"/><path fill="#9ec8b9" d="m203.58015 82.173775c0 -5.296715 12.578339 -9.590553 28.094498 -9.590553l0 0c15.516159 0 28.094482 4.2938385 28.094482 9.590553l0 0c0 5.296715 -12.578323 9.590553 -28.094482 9.590553l0 0c-15.516159 0 -28.094498 -4.2938385 -28.094498 -9.590553z" fill-rule="evenodd"/><path stroke="#9ec8b9" stroke-width="1.0" stroke-linejoin="round" stroke-linecap="butt" d="m203.58015 82.173775c0 -5.296715 12.578339 -9.590553 28.094498 -9.590553l0 0c15.516159 0 28.094482 4.2938385 28.094482 9.590553l0 0c0 5.296715 -12.578323 9.590553 -28.094482 9.590553l0 0c-15.516159 0 -28.094498 -4.2938385 -28.094498 -9.590553z" fill-rule="evenodd"/><path fill="#9ec8b9" d="m194.5355 69.0105l0 0c0 -5.296715 4.152817 -9.590549 9.275589 -9.590549l0 0c2.4600372 0 4.8193207 1.0104294 6.558838 2.8090057c1.739502 1.7985802 2.716751 4.2379723 2.716751 6.7815437l0 0c0 5.296715 -4.152817 9.590553 -9.275589 9.590553l0 0c-5.122772 0 -9.275589 -4.2938385 -9.275589 -9.590553z" fill-rule="evenodd"/><path stroke="#9ec8b9" stroke-width="1.0" stroke-linejoin="round" stroke-linecap="butt" d="m194.5355 69.0105l0 0c0 -5.296715 4.152817 -9.590549 9.275589 -9.590549l0 0c2.4600372 0 4.8193207 1.0104294 6.558838 2.8090057c1.739502 1.7985802 2.716751 4.2379723 2.716751 6.7815437l0 0c0 5.296715 -4.152817 9.590553 -9.275589 9.590553l0 0c-5.122772 0 -9.275589 -4.2938385 -9.275589 -9.590553z" fill-rule="evenodd"/><path fill="#9ec8b9" d="m189.72449 69.0105l0 0c0 -5.296715 2.933075 -9.590549 6.551193 -9.590549l0 0c1.7374725 0 3.4037933 1.0104294 4.63237 2.8090057c1.2285919 1.7985802 1.918808 4.2379723 1.918808 6.7815437l0 0c0 5.296715 -2.933075 9.590553 -6.551178 9.590553l0 0c-3.6181183 0 -6.551193 -4.2938385 -6.551193 -9.590553z" fill-rule="evenodd"/><path stroke="#9ec8b9" stroke-width="1.0" stroke-linejoin="round" stroke-linecap="butt" d="m189.72449 69.0105l0 0c0 -5.296715 2.933075 -9.590549 6.551193 -9.590549l0 0c1.7374725 0 3.4037933 1.0104294 4.63237 2.8090057c1.2285919 1.7985802 1.918808 4.2379723 1.918808 6.7815437l0 0c0 5.296715 -2.933075 9.590553 -6.551178 9.590553l0 0c-3.6181183 0 -6.551193 -4.2938385 -6.551193 -9.590553z" fill-rule="evenodd"/><path fill="#9ec8b9" d="m186.75569 50.95538l0 0c0 -6.175152 7.6358337 -11.181103 17.055115 -11.181103l0 0c9.419281 0 17.055115 5.005951 17.055115 11.181103l0 0c0 6.175152 -7.6358337 11.181103 -17.055115 11.181103l0 0c-9.419281 0 -17.055115 -5.005951 -17.055115 -11.181103z" fill-rule="evenodd"/><path stroke="#9ec8b9" stroke-width="1.0" stroke-linejoin="round" stroke-linecap="butt" d="m186.75569 50.95538l0 0c0 -6.175152 7.6358337 -11.181103 17.055115 -11.181103l0 0c9.419281 0 17.055115 5.005951 17.055115 11.181103l0 0c0 6.175152 -7.6358337 11.181103 -17.055115 11.181103l0 0c-9.419281 0 -17.055115 -5.005951 -17.055115 -11.181103z" fill-rule="evenodd"/><path fill="#9ec8b9" d="m194.53522 326.83466l0 0c0 -6.175171 7.6358337 -11.181122 17.055115 -11.181122l0 0c9.419281 0 17.055115 5.005951 17.055115 11.181122l0 0c0 6.1751404 -7.6358337 11.181091 -17.055115 11.181091l0 0c-9.419281 0 -17.055115 -5.005951 -17.055115 -11.181091z" fill-rule="evenodd"/><path stroke="#9ec8b9" stroke-width="1.0" stroke-linejoin="round" stroke-linecap="butt" d="m194.53522 326.83466l0 0c0 -6.175171 7.6358337 -11.181122 17.055115 -11.181122l0 0c9.419281 0 17.055115 5.005951 17.055115 11.181122l0 0c0 6.1751404 -7.6358337 11.181091 -17.055115 11.181091l0 0c-9.419281 0 -17.055115 -5.005951 -17.055115 -11.181091z" fill-rule="evenodd"/><path fill="#9ec8b9" d="m186.75569 108.92913l0 0c0 -6.175148 7.6358337 -11.181099 17.055115 -11.181099l0 0c9.419281 0 17.055115 5.005951 17.055115 11.181099l0 0c0 6.1751556 -7.6358337 11.181107 -17.055115 11.181107l0 0c-9.419281 0 -17.055115 -5.005951 -17.055115 -11.181107z" fill-rule="evenodd"/><path stroke="#9ec8b9" stroke-width="1.0" stroke-linejoin="round" stroke-linecap="butt" d="m186.75569 108.92913l0 0c0 -6.175148 7.6358337 -11.181099 17.055115 -11.181099l0 0c9.419281 0 17.055115 5.005951 17.055115 11.181099l0 0c0 6.1751556 -7.6358337 11.181107 -17.055115 11.181107l0 0c-9.419281 0 -17.055115 -5.005951 -17.055115 -11.181107z" fill-rule="evenodd"/><path fill="#9ec8b9" d="m229.0339 315.6063l0 0c0 -6.1751404 7.6358337 -11.181091 17.055115 -11.181091l0 0c9.419281 0 17.055115 5.005951 17.055115 11.181091l0 0c0 6.175171 -7.6358337 11.181122 -17.055115 11.181122l0 0c-9.419281 0 -17.055115 -5.005951 -17.055115 -11.181122z" fill-rule="evenodd"/><path stroke="#9ec8b9" stroke-width="1.0" stroke-linejoin="round" stroke-linecap="butt" d="m229.0339 315.6063l0 0c0 -6.1751404 7.6358337 -11.181091 17.055115 -11.181091l0 0c9.419281 0 17.055115 5.005951 17.055115 11.181091l0 0c0 6.175171 -7.6358337 11.181122 -17.055115 11.181122l0 0c-9.419281 0 -17.055115 -5.005951 -17.055115 -11.181122z" fill-rule="evenodd"/><path fill="#9ec8b9" d="m236.50635 67.385826l0 0c0 -6.175152 7.6358337 -11.181103 17.055115 -11.181103l0 0c9.419281 0 17.055115 5.005951 17.055115 11.181103l0 0c0 6.1751556 -7.6358337 11.181107 -17.055115 11.181107l0 0c-9.419281 0 -17.055115 -5.005951 -17.055115 -11.181107z" fill-rule="evenodd"/><path stroke="#9ec8b9" stroke-width="1.0" stroke-linejoin="round" stroke-linecap="butt" d="m236.50635 67.385826l0 0c0 -6.175152 7.6358337 -11.181103 17.055115 -11.181103l0 0c9.419281 0 17.055115 5.005951 17.055115 11.181103l0 0c0 6.1751556 -7.6358337 11.181107 -17.055115 11.181107l0 0c-9.419281 0 -17.055115 -5.005951 -17.055115 -11.181107z" fill-rule="evenodd"/><path fill="#9ec8b9" d="m263.1443 90.698166l0 0c0 -13.254837 5.5982056 -24.0 12.503937 -24.0l0 0c3.3162537 0 6.4966736 2.5285645 8.841614 7.029434c2.3449707 4.5008698 3.662323 10.60537 3.662323 16.970566l0 0c0 13.254829 -5.5982056 24.0 -12.503937 24.0l0 0c-6.905731 0 -12.503937 -10.745171 -12.503937 -24.0z" fill-rule="evenodd"/><path stroke="#9ec8b9" stroke-width="1.0" stroke-linejoin="round" stroke-linecap="butt" d="m263.1443 90.698166l0 0c0 -13.254837 5.5982056 -24.0 12.503937 -24.0l0 0c3.3162537 0 6.4966736 2.5285645 8.841614 7.029434c2.3449707 4.5008698 3.662323 10.60537 3.662323 16.970566l0 0c0 13.254829 -5.5982056 24.0 -12.503937 24.0l0 0c-6.905731 0 -12.503937 -10.745171 -12.503937 -24.0z" fill-rule="evenodd"/><path fill="#9ec8b9" d="m270.61658 285.29135l0 0c0 -6.175171 7.6358337 -11.181122 17.055115 -11.181122l0 0c9.419281 0 17.055115 5.005951 17.055115 11.181122l0 0c0 6.1751404 -7.6358337 11.181091 -17.055115 11.181091l0 0c-9.419281 0 -17.055115 -5.005951 -17.055115 -11.181091z" fill-rule="evenodd"/><path stroke="#9ec8b9" stroke-width="1.0" stroke-linejoin="round" stroke-linecap="butt" d="m270.61658 285.29135l0 0c0 -6.175171 7.6358337 -11.181122 17.055115 -11.181122l0 0c9.419281 0 17.055115 5.005951 17.055115 11.181122l0 0c0 6.1751404 -7.6358337 11.181091 -17.055115 11.181091l0 0c-9.419281 0 -17.055115 -5.005951 -17.055115 -11.181091z" fill-rule="evenodd"/><path fill="#9ec8b9" d="m282.43024 273.77954l0 0c0 -6.175171 7.6358337 -11.181122 17.055115 -11.181122l0 0c9.419281 0 17.055115 5.005951 17.055115 11.181122l0 0c0 6.1751404 -7.6358337 11.181091 -17.055115 11.181091l0 0c-9.419281 0 -17.055115 -5.005951 -17.055115 -11.181091z" fill-rule="evenodd"/><path stroke="#9ec8b9" stroke-width="1.0" stroke-linejoin="round" stroke-linecap="butt" d="m282.43024 273.77954l0 0c0 -6.175171 7.6358337 -11.181122 17.055115 -11.181122l0 0c9.419281 0 17.055115 5.005951 17.055115 11.181122l0 0c0 6.1751404 -7.6358337 11.181091 -17.055115 11.181091l0 0c-9.419281 0 -17.055115 -5.005951 -17.055115 -11.181091z" fill-rule="evenodd"/><path fill="#9ec8b9" d="m259.7688 293.10236l0 0c0 -6.1751404 7.6358337 -11.181091 17.055115 -11.181091l0 0c9.419312 0 17.055145 5.005951 17.055145 11.181091l0 0c0 6.175171 -7.6358337 11.181122 -17.055145 11.181122l0 0c-9.419281 0 -17.055115 -5.005951 -17.055115 -11.181122z" fill-rule="evenodd"/><path stroke="#9ec8b9" stroke-width="1.0" stroke-linejoin="round" stroke-linecap="butt" d="m259.7688 293.10236l0 0c0 -6.1751404 7.6358337 -11.181091 17.055115 -11.181091l0 0c9.419312 0 17.055145 5.005951 17.055145 11.181091l0 0c0 6.175171 -7.6358337 11.181122 -17.055145 11.181122l0 0c-9.419281 0 -17.055115 -5.005951 -17.055115 -11.181122z" fill-rule="evenodd"/><path fill="#9ec8b9" d="m236.50635 313.87402l0 0c0 -6.175171 7.6358337 -11.181122 17.055115 -11.181122l0 0c9.419281 0 17.055115 5.005951 17.055115 11.181122l0 0c0 6.1751404 -7.6358337 11.181091 -17.055115 11.181091l0 0c-9.419281 0 -17.055115 -5.005951 -17.055115 -11.181091z" fill-rule="evenodd"/><path stroke="#9ec8b9" stroke-width="1.0" stroke-linejoin="round" stroke-linecap="butt" d="m236.50635 313.87402l0 0c0 -6.175171 7.6358337 -11.181122 17.055115 -11.181122l0 0c9.419281 0 17.055115 5.005951 17.055115 11.181122l0 0c0 6.1751404 -7.6358337 11.181091 -17.055115 11.181091l0 0c-9.419281 0 -17.055115 -5.005951 -17.055115 -11.181091z" fill-rule="evenodd"/></g></svg>